2700 0 1 0           
7 BAH_SAT 14 ACIS 27.0.2 NT 24 Thu Apr 20 22:59:44 2023 
1 9.9999999999999995e-07 1e-10 
T @52 MHTQ84BHB7RHJXDT7KCTGVUWT5RHNA7P59PKJ233Y8M4MP6EKAP4 
body $1 -1 -1 $-1 0 $2 $-1 $3 T -10 -9.5105651629515364 -10 8.0901699437494745 9.5105651629515364 10 #
render-rbase-attrib $-1 -1 $4 $-1 $0 1 1 1 1 1 1 1 1 1 1 1 1 0 1 0 1 1 1 $5 $-1 0 1 1 0 0 0 1 0 0 0 1 0 0 10 1 no_rotate no_reflect no_shear #
lump $-1 -1 -1 $-1 $-1 $6 $0 T -10 -9.5105651629515364 -10 8.0901699437494745 9.5105651629515364 10 #
transform $-1 -1 1 0 0 0 1 0 0 0 1 0 0 10 1 no_rotate no_reflect no_shear #
rgb_color-st-attrib $-1 -1 $7 $1 $0 2 1 2 1 1 1 1 1 1 1 1 1 1 1 0 1 1 1 0.63500000000000001 0.70999999999999996 0.73299999999999998 #
rh_material-rh_entity $-1 -1 4 4 @5 plain @5 color -4 0.63500000000000001 0.70999999999999996 0.73299999999999998 @5 phong @14 ambient factor -2 1 @14 diffuse factor -2 0.75 @15 specular factor -2 0.5 @8 exponent -2 10 @14 specular color -4 1 1 1 @4 none @5 plain @5 color -4 0 0 0 #
shell $-1 -1 -1 $-1 $-1 $-1 $8 $-1 $2 T -10 -9.5105651629515364 -10 8.0901699437494745 9.5105651629515364 10 #
integer_attrib-name_attrib-gen-attrib $-1 -1 $-1 $4 $0 2 1 2 1 1 1 1 1 1 1 1 1 1 1 0 1 1 1 @18 GPC_MATERIAL_INDEX 0 #
face $-1 -1 -1 $-1 $9 $10 $6 $-1 $11 forward single T -10 -9.5105651629515364 10 8.0901699437494745 9.5105651629515364 10 F #
face $-1 -1 -1 $-1 $12 $13 $6 $-1 $14 reversed single T -10 -9.5105651629515364 -10 8.0901699437494745 9.5105651629515364 -10 F #
loop $-1 -1 -1 $-1 $-1 $15 $8 T -10 -9.5105651629515364 10 8.0901699437494745 9.5105651629515364 10 unknown #
plane-surface $-1 -1 -1 $-1 0 0 10 0 0 1 1 0 0 forward_v I I I I #
face $-1 -1 -1 $-1 $16 $17 $6 $-1 $18 reversed single T -3.0901699437494754 -9.5105651629515346 -10 8.0901699437494745 -5.8778525229247318 10 F #
loop $-1 -1 -1 $-1 $-1 $19 $9 T -10 -9.5105651629515364 -10 8.0901699437494745 9.5105651629515364 -10 unknown #
plane-surface $-1 -1 -1 $-1 0 0 -10 0 0 1 1 0 0 forward_v I I I I #
coedge $-1 -1 -1 $-1 $20 $21 $22 $23 forward $10 $-1 #
face $-1 -1 -1 $-1 $24 $25 $6 $-1 $26 reversed single T -10 -9.5105651629515364 -10 -3.0901699437494754 1.2246467991473531e-15 10 F #
loop $-1 -1 -1 $-1 $-1 $27 $12 T -3.0901699437494754 -9.5105651629515346 -10 8.0901699437494745 -5.8778525229247318 10 unknown #
plane-surface $-1 -1 -1 $-1 2.4999999999999996 -7.6942088429381332 0 -0.30901699437494728 0.95105651629515364 0 0 -0 1 forward_v I I I I #
coedge $-1 -1 -1 $-1 $28 $29 $30 $31 forward $13 $-1 #
coedge $-1 -1 -1 $-1 $32 $15 $33 $34 forward $10 $-1 #
coedge $-1 -1 -1 $-1 $15 $35 $36 $37 forward $10 $-1 #
coedge $-1 -1 -1 $-1 $38 $39 $15 $23 reversed $40 $-1 #
edge $-1 -1 -1 $-1 $41 -5.8778525229247318 $42 5.8778525229247318 $22 $43 forward @7 unknown T 8.0901699437494745 -5.8778525229247318 10 8.0901699437494745 5.8778525229247318 10 #
face $-1 -1 -1 $-1 $44 $45 $6 $-1 $46 reversed single T -10 8.8817841970012523e-16 -10 -3.0901699437494736 9.5105651629515364 10 F #
loop $-1 -1 -1 $-1 $-1 $47 $16 T -10 -9.5105651629515364 -10 -3.0901699437494754 1.2246467991473531e-15 10 unknown #
plane-surface $-1 -1 -1 $-1 -6.5450849718747381 -4.7552825814757664 0 0.80901699437494745 0.58778525229247292 -0 -0 0 -1 forward_v I I I I #
coedge $-1 -1 -1 $-1 $48 $36 $49 $50 forward $17 $-1 #
coedge $-1 -1 -1 $-1 $51 $19 $48 $52 forward $13 $-1 #
coedge $-1 -1 -1 $-1 $19 $53 $54 $55 forward $13 $-1 #
coedge $-1 -1 -1 $-1 $39 $38 $19 $31 reversed $40 $-1 #
edge $-1 -1 -1 $-1 $56 -5.8778525229247318 $57 5.8778525229247318 $30 $58 forward @7 unknown T 8.0901699437494745 -5.8778525229247318 -10 8.0901699437494745 5.8778525229247318 -10 #
coedge $-1 -1 -1 $-1 $35 $20 $59 $60 forward $10 $-1 #
coedge $-1 -1 -1 $-1 $61 $62 $20 $34 reversed $63 $-1 #
edge $-1 -1 -1 $-1 $42 -5.8778525229247318 $64 5.8778525229247318 $33 $65 forward @7 unknown T -3.0901699437494741 5.8778525229247318 10 8.0901699437494745 9.5105651629515364 10 #
coedge $-1 -1 -1 $-1 $21 $32 $66 $67 forward $10 $-1 #
coedge $-1 -1 -1 $-1 $27 $68 $21 $37 reversed $17 $-1 #
edge $-1 -1 -1 $-1 $69 -5.8778525229247309 $41 5.8778525229247309 $36 $70 forward @7 unknown T -3.0901699437494754 -9.5105651629515346 10 8.0901699437494745 -5.8778525229247318 10 #
coedge $-1 -1 -1 $-1 $30 $22 $68 $71 forward $40 $-1 #
coedge $-1 -1 -1 $-1 $22 $30 $61 $72 reversed $40 $-1 #
loop $-1 -1 -1 $-1 $-1 $38 $73 T 8.0901699437494745 -5.8778525229247318 -10 8.0901699437494745 5.8778525229247318 10 unknown #
vertex $-1 -1 -1 $-1 $23 $74 #
vertex $-1 -1 -1 $-1 $23 $75 #
straight-curve $-1 -1 -1 $-1 8.0901699437494745 0 10 0 1 0 I I #
face $-1 -1 -1 $-1 $73 $63 $6 $-1 $76 reversed single T -3.0901699437494741 5.8778525229247318 -10 8.0901699437494745 9.5105651629515364 10 F #
loop $-1 -1 -1 $-1 $-1 $77 $24 T -10 8.8817841970012523e-16 -10 -3.0901699437494736 9.5105651629515364 10 unknown #
plane-surface $-1 -1 -1 $-1 -6.5450849718747364 4.7552825814757691 0 0.80901699437494723 -0.58778525229247325 0 0 0 -1 forward_v I I I I #
coedge $-1 -1 -1 $-1 $78 $66 $79 $80 forward $25 $-1 #
coedge $-1 -1 -1 $-1 $68 $27 $28 $52 reversed $17 $-1 #
coedge $-1 -1 -1 $-1 $66 $78 $27 $50 reversed $25 $-1 #
edge $-1 -1 -1 $-1 $69 -10 $81 10 $49 $82 forward @7 unknown T -3.0901699437494754 -9.5105651629515346 -10 -3.0901699437494754 -9.5105651629515346 10 #
coedge $-1 -1 -1 $-1 $53 $28 $78 $83 forward $13 $-1 #
edge $-1 -1 -1 $-1 $57 -5.8778525229247309 $81 5.8778525229247309 $48 $84 forward @7 unknown T -3.0901699437494754 -9.5105651629515346 -10 8.0901699437494745 -5.8778525229247318 -10 #
coedge $-1 -1 -1 $-1 $29 $51 $85 $86 forward $13 $-1 #
coedge $-1 -1 -1 $-1 $62 $61 $29 $55 reversed $63 $-1 #
edge $-1 -1 -1 $-1 $87 -5.8778525229247318 $56 5.8778525229247318 $54 $88 forward @7 unknown T -3.0901699437494741 5.8778525229247318 -10 8.0901699437494745 9.5105651629515364 -10 #
vertex $-1 -1 -1 $-1 $31 $89 #
vertex $-1 -1 -1 $-1 $71 $90 #
straight-curve $-1 -1 -1 $-1 8.0901699437494745 0 -10 0 -1 0 I I #
coedge $-1 -1 -1 $-1 $77 $79 $32 $60 reversed $45 $-1 #
edge $-1 -1 -1 $-1 $64 -5.87785252292473 $91 5.8778525229247318 $59 $92 forward @7 unknown T -10 8.8817841970012523e-16 10 -3.0901699437494736 9.5105651629515364 10 #
coedge $-1 -1 -1 $-1 $54 $33 $39 $72 forward $63 $-1 #
coedge $-1 -1 -1 $-1 $33 $54 $77 $93 reversed $63 $-1 #
loop $-1 -1 -1 $-1 $-1 $61 $44 T -3.0901699437494741 5.8778525229247318 -10 8.0901699437494745 9.5105651629515364 10 unknown #
vertex $-1 -1 -1 $-1 $34 $94 #
straight-curve $-1 -1 -1 $-1 2.5000000000000004 7.6942088429381341 10 -0.95105651629515353 0.3090169943749474 0 I I #
coedge $-1 -1 -1 $-1 $47 $49 $35 $67 reversed $25 $-1 #
edge $-1 -1 -1 $-1 $91 -5.87785252292473 $69 5.8778525229247318 $66 $95 forward @7 unknown T -10 -9.5105651629515364 10 -3.0901699437494754 1.2246467991473531e-15 10 #
coedge $-1 -1 -1 $-1 $36 $48 $38 $71 reversed $17 $-1 #
vertex $-1 -1 -1 $-1 $67 $96 #
straight-curve $-1 -1 -1 $-1 2.4999999999999996 -7.6942088429381332 10 0.95105651629515364 0.30901699437494728 0 I I #
edge $-1 -1 -1 $-1 $41 -10 $57 10 $38 $97 forward @7 unknown T 8.0901699437494745 -5.8778525229247318 -10 8.0901699437494745 -5.8778525229247318 10 #
edge $-1 -1 -1 $-1 $42 -10 $56 10 $39 $98 forward @7 unknown T 8.0901699437494745 5.8778525229247318 -10 8.0901699437494745 5.8778525229247318 10 #
face $-1 -1 -1 $-1 $-1 $40 $6 $-1 $99 reversed single T 8.0901699437494745 -5.8778525229247318 -10 8.0901699437494745 5.8778525229247318 10 F #
point $-1 -1 -1 $-1 8.0901699437494745 -5.8778525229247318 10 #
point $-1 -1 -1 $-1 8.0901699437494745 5.8778525229247318 10 #
plane-surface $-1 -1 -1 $-1 2.5000000000000004 7.6942088429381341 0 -0.30901699437494745 -0.95105651629515364 0 0 -0 -1 forward_v I I I I #
coedge $-1 -1 -1 $-1 $85 $59 $62 $93 forward $45 $-1 #
coedge $-1 -1 -1 $-1 $49 $47 $51 $83 reversed $25 $-1 #
coedge $-1 -1 -1 $-1 $59 $85 $47 $80 reversed $45 $-1 #
edge $-1 -1 -1 $-1 $91 -10 $100 10 $79 $101 forward @7 unknown T -10 1.2246467991473531e-15 -10 -10 1.2246467991473531e-15 10 #
vertex $-1 -1 -1 $-1 $83 $102 #
straight-curve $-1 -1 -1 $-1 -3.0901699437494754 -9.5105651629515346 0 0 0 -1 I I #
edge $-1 -1 -1 $-1 $81 -5.8778525229247318 $100 5.87785252292473 $78 $103 forward @7 unknown T -10 -9.5105651629515364 -10 -3.0901699437494754 1.2246467991473531e-15 -10 #
straight-curve $-1 -1 -1 $-1 2.4999999999999996 -7.6942088429381332 -10 -0.95105651629515364 -0.30901699437494728 0 I I #
coedge $-1 -1 -1 $-1 $79 $77 $53 $86 reversed $45 $-1 #
edge $-1 -1 -1 $-1 $100 -5.8778525229247318 $87 5.87785252292473 $85 $104 forward @7 unknown T -10 8.8817841970012523e-16 -10 -3.0901699437494736 9.5105651629515364 -10 #
vertex $-1 -1 -1 $-1 $55 $105 #
straight-curve $-1 -1 -1 $-1 2.5000000000000004 7.6942088429381341 -10 0.95105651629515353 -0.3090169943749474 0 I I #
point $-1 -1 -1 $-1 8.0901699437494745 5.8778525229247318 -10 #
point $-1 -1 -1 $-1 8.0901699437494745 -5.8778525229247318 -10 #
vertex $-1 -1 -1 $-1 $60 $106 #
straight-curve $-1 -1 -1 $-1 -6.5450849718747364 4.7552825814757691 10 -0.58778525229247325 -0.80901699437494734 0 I I #
edge $-1 -1 -1 $-1 $64 -10 $87 10 $62 $107 forward @7 unknown T -3.0901699437494736 9.5105651629515364 -10 -3.0901699437494736 9.5105651629515364 10 #
point $-1 -1 -1 $-1 -3.0901699437494736 9.5105651629515364 10 #
straight-curve $-1 -1 -1 $-1 -6.5450849718747381 -4.7552825814757664 10 0.58778525229247303 -0.80901699437494756 0 I I #
point $-1 -1 -1 $-1 -3.0901699437494754 -9.5105651629515346 10 #
straight-curve $-1 -1 -1 $-1 8.0901699437494745 -5.8778525229247318 0 0 0 -1 I I #
straight-curve $-1 -1 -1 $-1 8.0901699437494745 5.8778525229247318 0 0 0 -1 I I #
plane-surface $-1 -1 -1 $-1 8.0901699437494745 0 0 -1 0 0 0 -0 1 forward_v I I I I #
vertex $-1 -1 -1 $-1 $86 $108 #
straight-curve $-1 -1 -1 $-1 -10 1.2246467991473531e-15 0 0 0 -1 I I #
point $-1 -1 -1 $-1 -3.0901699437494754 -9.5105651629515346 -10 #
straight-curve $-1 -1 -1 $-1 -6.5450849718747381 -4.7552825814757664 -10 -0.58778525229247303 0.80901699437494756 0 I I #
straight-curve $-1 -1 -1 $-1 -6.5450849718747364 4.7552825814757691 -10 0.58778525229247325 0.80901699437494734 0 I I #
point $-1 -1 -1 $-1 -3.0901699437494736 9.5105651629515364 -10 #
point $-1 -1 -1 $-1 -10 1.2246467991473531e-15 10 #
straight-curve $-1 -1 -1 $-1 -3.0901699437494736 9.5105651629515364 0 0 0 -1 I I #
point $-1 -1 -1 $-1 -10 1.2246467991473531e-15 -10 #
End-of-ACIS-data 