2700 0 1 0           
7 BAH_SAT 14 ACIS 27.0.2 NT 24 Mon Apr 24 15:14:05 2023 
1 9.9999999999999995e-07 1e-10 
T @52 E48_VWVWZYHZ8WU3PEE4K78942GHGJ5WWCSMQZ3F7DAMRJNDQCN3 
body $1 -1 -1 $-1 0 $2 $-1 $3 T -6.9217730209043697 -6.444536607266012 -4.5000000000000009 8.4734799936436307 6.5061998813233615 5.5 #
render-rbase-attrib $-1 -1 $4 $-1 $0 1 1 1 1 1 1 1 1 1 1 1 1 0 1 0 1 1 1 $5 $-1 0 0 #
lump $6 -1 -1 $-1 $-1 $7 $0 T -6.9217730209043697 -6.444536607266012 -4.5000000000000009 8.4734799936436307 6.5061998813233615 5.5 #
transform $-1 -1 1 0 0 0 1 0 0 0 1 0 0 0 1 no_rotate no_reflect no_shear #
rgb_color-st-attrib $-1 -1 $8 $1 $0 2 1 2 1 1 1 1 1 1 1 1 1 1 1 0 1 1 1 0.63500000000000001 0.70999999999999996 0.73299999999999998 #
rh_material-rh_entity $-1 -1 4 4 @5 plain @5 color -4 0.63500000000000001 0.70999999999999996 0.73299999999999998 @5 phong @14 ambient factor -2 1 @14 diffuse factor -2 0.75 @15 specular factor -2 0.5 @8 exponent -2 10 @14 specular color -4 1 1 1 @4 none @5 plain @5 color -4 0 0 0 #
rgb_color-st-attrib $-1 -1 $-1 $-1 $2 2 1 2 1 1 1 1 1 1 1 1 1 1 1 0 1 1 1 1 1 1 #
shell $-1 -1 -1 $-1 $-1 $-1 $9 $-1 $2 T -6.9217730209043697 -6.444536607266012 -4.5000000000000009 8.4734799936436307 6.5061998813233615 5.5 #
integer_attrib-name_attrib-gen-attrib $-1 -1 $10 $4 $0 2 1 2 1 1 1 1 1 1 1 1 1 1 1 0 1 1 1 @18 GPC_MATERIAL_INDEX 0 #
face $11 -1 -1 $-1 $12 $13 $7 $-1 $14 forward single T 0.77585348636963181 2.6573866276863614 -4.5000000000000009 8.4734799936436307 6.5061998813233597 5.5 F #
name_attrib-gen-attrib $-1 -1 $-1 $8 $0 2 1 1 1 1 1 1 1 1 1 1 1 1 1 0 1 1 1 @17 \X2\96f64ef6\X0\1 #
integer_attrib-name_attrib-gen-attrib $-1 -1 $-1 $-1 $9 2 1 2 1 1 1 1 1 1 1 1 1 1 1 0 1 1 1 @9 缩放比例1 0 #
face $15 -1 -1 $-1 $16 $17 $7 $-1 $18 forward single T -6.9217730209043697 2.6573866276863614 -4.5000000000000009 0.77585348636963181 6.5061998813233615 5.5 F #
loop $-1 -1 -1 $-1 $-1 $19 $9 T 0.77585348636963181 2.6573866276863614 -4.5000000000000009 8.4734799936436307 6.5061998813233597 5.5 unknown #
cone-surface $-1 -1 -1 $-1 4.6246667400066324 2.6573866276863614 5.5 -0 -0 -1 -3.8488132536369983 0 0 1 I I 0 1 3.8488132536369983 forward I I I I #
integer_attrib-name_attrib-gen-attrib $-1 -1 $-1 $-1 $12 2 1 2 1 1 1 1 1 1 1 1 1 1 1 0 1 1 1 @9 缩放比例1 0 #
face $20 -1 -1 $-1 $21 $22 $7 $-1 $23 reversed single T -6.9217730209043697 -6.444536607266012 -4.5000000000000009 0.77585348636963181 2.6573866276863614 5.5 T 0 1 0 1 #
loop $-1 -1 -1 $-1 $-1 $24 $12 T -6.9217730209043697 2.6573866276863614 -4.5000000000000009 0.77585348636963181 6.5061998813233615 5.5 unknown #
cone-surface $-1 -1 -1 $-1 -3.0729597672673687 2.6573866276863614 5.5 -0 -0 -1 -3.8488132536370006 0 0 1 I I 0 1 3.8488132536370006 forward I I I I #
coedge $-1 -1 -1 $-1 $25 $26 $27 $28 reversed $13 $-1 #
integer_attrib-name_attrib-gen-attrib $-1 -1 $-1 $-1 $16 2 1 2 1 1 1 1 1 1 1 1 1 1 1 0 1 1 1 @9 缩放比例1 0 #
face $29 -1 -1 $-1 $30 $31 $7 $-1 $32 forward single T 0.77585348636963181 -6.444536607266012 -4.5000000000000009 8.4734799936436289 2.6573866276863614 5.5 T 0 1 0 1 #
loop $-1 -1 -1 $-1 $-1 $33 $16 T -6.9217730209043697 -6.444536607266012 -4.5000000000000009 0.77585348636963181 2.6573866276863614 5.5 unknown #
spline-surface $-1 -1 -1 $-1 forward { exactsur 0 full nubs 3 1 open open none none 2 2 
	0 3 1 3 
	0 1 1 1 
	-6.9217730209043697 2.6573866276863614 5.5 
	-6.9217730209043697 -2.0021832766337191 5.5 
	-3.1919830967283827 -4.9725599681994295 5.5 
	0.77585348636963181 -6.444536607266012 5.5 
	-6.9217730209043697 2.6573866276863614 -4.5000000000000009 
	-6.9217730209043697 -2.0021832766337191 -4.5000000000000009 
	-3.1919830967283827 -4.9725599681994295 -4.5000000000000009 
	0.77585348636963181 -6.444536607266012 -4.5000000000000009 
	0 
	0 
	0 
	0 
	0 
	0 
	0 
	F 1 F 0 F 1 F 0 } I I I I #
coedge $-1 -1 -1 $-1 $34 $35 $36 $37 forward $17 $-1 #
coedge $-1 -1 -1 $-1 $38 $19 $35 $39 reversed $13 $-1 #
coedge $-1 -1 -1 $-1 $19 $38 $40 $41 forward $13 $-1 #
coedge $-1 -1 -1 $-1 $42 $36 $19 $28 forward $43 $-1 #
edge $-1 -1 -1 $-1 $44 0 $45 3.1415926535897931 $27 $46 forward @7 unknown T 0.77585348636963181 2.6573866276863614 -4.5000000000000009 8.4734799936436307 6.5061998813233597 -4.5000000000000009 #
integer_attrib-name_attrib-gen-attrib $-1 -1 $-1 $-1 $21 2 1 2 1 1 1 1 1 1 1 1 1 1 1 0 1 1 1 @9 缩放比例1 0 #
face $47 -1 -1 $-1 $48 $49 $7 $-1 $50 reversed single T -6.9217730209043697 -6.444536607266012 5.5 8.4734799936436307 6.5061998813233615 5.5 F #
loop $-1 -1 -1 $-1 $-1 $51 $21 T 0.77585348636963181 -6.444536607266012 -4.5000000000000009 8.4734799936436289 2.6573866276863614 5.5 unknown #
spline-surface $-1 -1 -1 $-1 forward { exactsur 1 full nubs 3 1 open open none none 2 2 
	0 3 1 3 
	0 1 1 1 
	8.4734799936436289 2.6573866276863614 5.5 
	8.4734799936436271 -2.0021832766337146 5.5 
	4.7436900694676538 -4.9725599681994384 5.5 
	0.77585348636963181 -6.444536607266012 5.5 
	8.4734799936436289 2.6573866276863614 -4.5000000000000009 
	8.4734799936436271 -2.0021832766337146 -4.5000000000000009 
	4.7436900694676538 -4.9725599681994384 -4.5000000000000009 
	0.77585348636963181 -6.444536607266012 -4.5000000000000009 
	0 
	0 
	0 
	0 
	0 
	0 
	0 
	F 1 F 0 F 1 F 0 } I I I I #
coedge $-1 -1 -1 $-1 $52 $53 $54 $55 forward $22 $56 #
coedge $-1 -1 -1 $-1 $57 $24 $53 $58 reversed $17 $-1 #
coedge $-1 -1 -1 $-1 $24 $57 $25 $39 forward $17 $-1 #
coedge $-1 -1 -1 $-1 $27 $54 $24 $37 reversed $43 $-1 #
edge $-1 -1 -1 $-1 $44 0 $59 3.1415926535897931 $24 $60 forward @7 unknown T -6.9217730209043697 2.6573866276863614 -4.5000000000000009 0.77585348636963181 6.5061998813233615 -4.5000000000000009 #
coedge $-1 -1 -1 $-1 $26 $25 $61 $62 forward $13 $-1 #
edge $-1 -1 -1 $-1 $63 -0 $44 0.01 $35 $64 forward @7 unknown T 0.77585348636963181 2.6573866276863614 -4.5000000000000009 0.77585348636963181 2.6573866276863614 5.5 #
coedge $-1 -1 -1 $-1 $65 $51 $26 $41 reversed $31 $66 #
edge $-1 -1 -1 $-1 $67 -0 $45 0.01 $26 $68 forward @7 unknown T 8.4734799936436289 2.6573866276863614 -4.5000000000000009 8.4734799936436289 2.6573866276863614 5.5 #
coedge $-1 -1 -1 $-1 $54 $27 $51 $69 forward $43 $-1 #
loop $-1 -1 -1 $-1 $-1 $27 $48 T -6.9217730209043697 -6.444536607266012 -4.5000000000000009 8.4734799936436307 6.5061998813233615 -4.5000000000000009 unknown #
vertex $-1 -1 -1 $-1 $39 $70 #
vertex $-1 -1 -1 $-1 $41 $71 #
ellipse-curve $-1 -1 -1 $-1 4.6246667400066324 2.6573866276863614 -4.5000000000000009 -0 -0 -1 -3.8488132536369983 0 0 1 I I #
integer_attrib-name_attrib-gen-attrib $-1 -1 $-1 $-1 $30 2 1 2 1 1 1 1 1 1 1 1 1 1 1 0 1 1 1 @9 缩放比例1 0 #
face $72 -1 -1 $-1 $-1 $43 $7 $-1 $73 forward single T -6.9217730209043697 -6.444536607266012 -4.5000000000000009 8.4734799936436307 6.5061998813233615 -4.5000000000000009 F #
loop $-1 -1 -1 $-1 $-1 $61 $30 T -6.9217730209043697 -6.444536607266012 5.5 8.4734799936436307 6.5061998813233615 5.5 unknown #
plane-surface $-1 -1 -1 $-1 4.6246667400066324 2.6573866276863614 5.5 0 0 -1 -1000 0 0 forward_v I I I I #
coedge $-1 -1 -1 $-1 $40 $74 $42 $69 reversed $31 $75 #
coedge $-1 -1 -1 $-1 $76 $33 $74 $77 reversed $22 $78 #
coedge $-1 -1 -1 $-1 $33 $76 $34 $58 forward $22 $79 #
coedge $-1 -1 -1 $-1 $36 $42 $33 $55 reversed $43 $-1 #
edge $-1 -1 -1 $-1 $59 0 $80 1 $33 $81 forward @7 unknown T -6.9217730209043697 -6.444536607266012 -4.5000000000000009 0.77585348636963181 2.6573866276863614 -4.5000000000000009 #
pcurve $-1 -1 -1 $-1 0 forward { exppc 2 nubs 1 open 2 
	0 1 1 1 
	0 1 
	1 1 
	0.001 
	-1 
	spline reversed { ref 0 } I I I I 
	} 0 0 #
coedge $-1 -1 -1 $-1 $35 $34 $82 $83 reversed $17 $-1 #
edge $-1 -1 -1 $-1 $84 -0 $59 0.01 $53 $85 forward @7 unknown T -6.9217730209043697 2.6573866276863614 -4.5000000000000009 -6.9217730209043697 2.6573866276863614 5.5 #
vertex $-1 -1 -1 $-1 $37 $86 #
ellipse-curve $-1 -1 -1 $-1 -3.0729597672673687 2.6573866276863614 -4.5000000000000009 0 0 1 3.8488132536370006 0 0 1 I I #
coedge $-1 -1 -1 $-1 $82 $87 $38 $62 reversed $49 $-1 #
edge $-1 -1 -1 $-1 $63 0 $67 3.1415926535897931 $38 $88 forward @7 unknown T 0.77585348636963181 2.6573866276863614 5.5 8.4734799936436307 6.5061998813233597 5.5 #
vertex $-1 -1 -1 $-1 $39 $89 #
straight-curve $-1 -1 -1 $-1 0.77585348636963181 2.6573866276863614 5.5 -0 -0 -1000 I I #
coedge $-1 -1 -1 $-1 $74 $40 $87 $90 forward $31 $91 #
pcurve $-1 -1 -1 $-1 0 forward { exppc 3 nubs 1 open 2 
	-0.01 1 0 1 
	0 1 
	0 0 
	0.001 
	-1 
	spline forward { ref 1 } I I I I 
	} 0 0 #
vertex $-1 -1 -1 $-1 $41 $92 #
straight-curve $-1 -1 -1 $-1 8.4734799936436289 2.6573866276863614 5.5 -0 -0 -1000 I I #
edge $-1 -1 -1 $-1 $45 0 $80 1 $42 $93 forward @7 unknown T 0.77585348636963181 -6.444536607266012 -4.5000000000000009 8.4734799936436289 2.6573866276863614 -4.5000000000000009 #
point $-1 -1 -1 $-1 0.77585348636963181 2.6573866276863614 -4.5000000000000009 #
point $-1 -1 -1 $-1 8.4734799936436289 2.6573866276863614 -4.5000000000000009 #
integer_attrib-name_attrib-gen-attrib $-1 -1 $-1 $-1 $48 2 1 2 1 1 1 1 1 1 1 1 1 1 1 0 1 1 1 @9 缩放比例1 0 #
plane-surface $-1 -1 -1 $-1 4.6246667400066324 2.6573866276863614 -4.5000000000000009 0 0 -1 -1000 0 0 forward_v I I I I #
coedge $-1 -1 -1 $-1 $51 $65 $52 $77 forward $31 $94 #
pcurve $-1 -1 -1 $-1 0 forward { exppc 4 nubs 1 open 2 
	-1 1 -0 1 
	1 1 
	0 1 
	0.001 
	-1 
	spline forward { ref 1 } I I I I 
	} 0 0 #
coedge $-1 -1 -1 $-1 $53 $52 $95 $96 reversed $22 $97 #
edge $-1 -1 -1 $-1 $98 -0 $80 0.01 $74 $99 forward @7 unknown T 0.77585348636963181 -6.444536607266012 -4.5000000000000009 0.77585348636963181 -6.444536607266012 5.5 #
pcurve $-1 -1 -1 $-1 0 forward { exppc 5 nubs 1 open 2 
	-0.01 1 0 1 
	1 1 
	1 0 
	0.001 
	-1 
	spline reversed { ref 0 } I I I I 
	} 0 0 #
pcurve $-1 -1 -1 $-1 0 forward { exppc 6 nubs 1 open 2 
	0 1 0.01 1 
	0 0 
	0 1 
	0.001 
	-1 
	spline reversed { ref 0 } I I I I 
	} 0 0 #
vertex $-1 -1 -1 $-1 $77 $100 #
intcurve-curve $-1 -1 -1 $-1 forward { exactcur 7 full nubs 3 open 2 
	0 3 1 3 
	-6.9217730209043697 2.6573866276863614 -4.5000000000000009 
	-6.9217730209043697 -2.0021832766337191 -4.5000000000000009 
	-3.1919830967283827 -4.9725599681994295 -4.5000000000000009 
	0.77585348636963181 -6.444536607266012 -4.5000000000000009 
	0 
	null_surface 
	null_surface 
	nullbs 
	nullbs 
	-1 
	-1 
	I I 
	0 
	0 
	0 
	
	-1 
	none F F 1 F 0 } I I #
coedge $-1 -1 -1 $-1 $95 $61 $57 $83 forward $49 $-1 #
edge $-1 -1 -1 $-1 $63 0 $84 3.1415926535897931 $82 $101 forward @7 unknown T -6.9217730209043697 2.6573866276863614 5.5 0.77585348636963181 6.5061998813233615 5.5 #
vertex $-1 -1 -1 $-1 $83 $102 #
straight-curve $-1 -1 -1 $-1 -6.9217730209043697 2.6573866276863614 5.5 -0 -0 -1000 I I #
point $-1 -1 -1 $-1 -6.9217730209043697 2.6573866276863614 -4.5000000000000009 #
coedge $-1 -1 -1 $-1 $61 $95 $65 $90 reversed $49 $-1 #
ellipse-curve $-1 -1 -1 $-1 4.6246667400066324 2.6573866276863614 5.5 -0 -0 -1 -3.8488132536369983 0 0 1 I I #
point $-1 -1 -1 $-1 0.77585348636963181 2.6573866276863614 5.5 #
edge $-1 -1 -1 $-1 $67 0 $98 1 $65 $103 forward @7 unknown T 0.77585348636963181 -6.444536607266012 5.5 8.4734799936436289 2.6573866276863614 5.5 #
pcurve $-1 -1 -1 $-1 0 forward { exppc 8 nubs 1 open 2 
	0 1 1 1 
	0 0 
	1 0 
	0.001 
	-1 
	spline forward { ref 1 } I I I I 
	} 0 0 #
point $-1 -1 -1 $-1 8.4734799936436289 2.6573866276863614 5.5 #
intcurve-curve $-1 -1 -1 $-1 forward { exactcur 9 full nubs 3 open 2 
	0 3 1 3 
	8.4734799936436289 2.6573866276863614 -4.5000000000000009 
	8.4734799936436271 -2.0021832766337146 -4.5000000000000009 
	4.7436900694676538 -4.9725599681994384 -4.5000000000000009 
	0.77585348636963181 -6.444536607266012 -4.5000000000000009 
	0 
	null_surface 
	null_surface 
	nullbs 
	nullbs 
	-1 
	-1 
	I I 
	0 
	0 
	0 
	
	-1 
	none F F 1 F 0 } I I #
pcurve $-1 -1 -1 $-1 0 forward { exppc 10 nubs 1 open 2 
	0 1 0.01 1 
	1 0 
	1 1 
	0.001 
	-1 
	spline forward { ref 1 } I I I I 
	} 0 0 #
coedge $-1 -1 -1 $-1 $87 $82 $76 $96 forward $49 $-1 #
edge $-1 -1 -1 $-1 $84 0 $98 1 $95 $104 forward @7 unknown T -6.9217730209043697 -6.444536607266012 5.5 0.77585348636963181 2.6573866276863614 5.5 #
pcurve $-1 -1 -1 $-1 0 forward { exppc 11 nubs 1 open 2 
	-1 1 -0 1 
	1 0 
	0 0 
	0.001 
	-1 
	spline reversed { ref 0 } I I I I 
	} 0 0 #
vertex $-1 -1 -1 $-1 $96 $105 #
straight-curve $-1 -1 -1 $-1 0.77585348636963181 -6.444536607266012 5.5 -0 -0 -1000 I I #
point $-1 -1 -1 $-1 0.77585348636963181 -6.444536607266012 -4.5000000000000009 #
ellipse-curve $-1 -1 -1 $-1 -3.0729597672673687 2.6573866276863614 5.5 0 0 1 3.8488132536370006 0 0 1 I I #
point $-1 -1 -1 $-1 -6.9217730209043697 2.6573866276863614 5.5 #
intcurve-curve $-1 -1 -1 $-1 forward { exactcur 12 full nubs 3 open 2 
	0 3 1 3 
	8.4734799936436289 2.6573866276863614 5.5 
	8.4734799936436271 -2.0021832766337146 5.5 
	4.7436900694676538 -4.9725599681994384 5.5 
	0.77585348636963181 -6.444536607266012 5.5 
	0 
	null_surface 
	null_surface 
	nullbs 
	nullbs 
	-1 
	-1 
	I I 
	0 
	0 
	0 
	
	-1 
	none F F 1 F 0 } I I #
intcurve-curve $-1 -1 -1 $-1 forward { exactcur 13 full nubs 3 open 2 
	0 3 1 3 
	-6.9217730209043697 2.6573866276863614 5.5 
	-6.9217730209043697 -2.0021832766337191 5.5 
	-3.1919830967283827 -4.9725599681994295 5.5 
	0.77585348636963181 -6.444536607266012 5.5 
	0 
	null_surface 
	null_surface 
	nullbs 
	nullbs 
	-1 
	-1 
	I I 
	0 
	0 
	0 
	
	-1 
	none F F 1 F 0 } I I #
point $-1 -1 -1 $-1 0.77585348636963181 -6.444536607266012 5.5 #
End-of-ACIS-data 