2700 0 1 0           
7 BAH_SAT 14 ACIS 27.0.2 NT 24 Wed May 10 18:18:27 2023 
1 9.9999999999999995e-07 1e-10 
T @52 9KJTC3AYJMHEU2F267RXGTDG8649PPPQHANBJ447QBACKC7UTAM3 
body $1 -1 -1 $-1 0 $2 $-1 $3 T 10 -14.175238600470131 10 70 0 100.91135838672956 #
render-rbase-attrib $-1 -1 $4 $-1 $0 1 1 1 1 1 1 1 1 1 1 1 1 0 1 0 1 1 1 $5 $-1 0 0 #
lump $-1 -1 -1 $-1 $-1 $6 $0 T 10 -14.175238600470131 10 70 0 100.91135838672956 #
transform $-1 -1 1 0 0 0 1 0 0 0 1 0 0 0 1 no_rotate no_reflect no_shear #
rgb_color-st-attrib $-1 -1 $7 $1 $0 2 1 2 1 1 1 1 1 1 1 1 1 1 1 0 1 1 1 0.63500000000000001 0.70999999999999996 0.73299999999999998 #
rh_material-rh_entity $-1 -1 4 4 @5 plain @5 color -4 0.63500000000000001 0.70999999999999996 0.73299999999999998 @5 phong @14 ambient factor -2 1 @14 diffuse factor -2 0.75 @15 specular factor -2 0.5 @8 exponent -2 10 @14 specular color -4 1 1 1 @4 none @5 plain @5 color -4 0 0 0 #
shell $-1 -1 -1 $-1 $-1 $-1 $8 $-1 $2 T 10 -14.175238600470131 10 70 0 100.91135838672956 #
integer_attrib-name_attrib-gen-attrib $-1 -1 $-1 $4 $0 2 1 2 1 1 1 1 1 1 1 1 1 1 1 0 1 1 1 @18 GPC_MATERIAL_INDEX 0 #
face $9 -1 -1 $-1 $10 $11 $6 $-1 $12 forward single T 44.999999999999901 -14.175238600470131 54.999999999999837 70 0 100 F #
color-adesk-attrib $-1 -1 $-1 $-1 $8 1 1 1 1 1 1 1 1 1 1 1 1 0 1 0 1 1 1 256 #
face $13 -1 -1 $-1 $14 $15 $6 $-1 $16 forward single T 40.558764276014145 -14.175238600470131 23.72081441810078 44.999999999999901 0 54.999999999999844 F #
loop $-1 -1 -1 $-1 $-1 $17 $8 T 44.999999999999901 -14.175238600470131 54.999999999999837 70 0 100 unknown #
plane-surface $-1 -1 -1 $-1 44.999999999999901 0 54.999999999999837 0.87415727612153771 0 -0.48564293117863222 0.48564293117863222 0 0.87415727612153771 forward_v I I I I #
color-adesk-attrib $-1 -1 $-1 $-1 $10 1 1 1 1 1 1 1 1 1 1 1 1 0 1 0 1 1 1 256 #
face $18 -1 -1 $-1 $19 $20 $6 $-1 $21 forward single T 44.637725578927231 -14.175238600470131 10 52.494687065497082 0 23.720814418100787 F #
loop $-1 -1 -1 $-1 $-1 $22 $10 T 40.558764276014145 -14.175238600470131 23.72081441810078 44.999999999999901 0 54.999999999999844 unknown #
cone-surface $-1 -1 -1 $-1 71.41168635159238 0 39.052410067135177 0 -1 0 -26.773960772665149 0 -15.331595649034398 1 I I 0 -1 30.852922075578235 forward I I I I #
coedge $-1 -1 -1 $-1 $23 $24 $25 $26 forward $11 $-1 #
color-adesk-attrib $-1 -1 $-1 $-1 $14 1 1 1 1 1 1 1 1 1 1 1 1 0 1 0 1 1 1 256 #
face $27 -1 -1 $-1 $28 $29 $6 $-1 $30 forward single T 10 -14.175238600470131 10 52.494687065497082 0 10 F #
loop $-1 -1 -1 $-1 $-1 $31 $14 T 44.637725578927231 -14.175238600470131 10 52.494687065497082 0 23.720814418100787 unknown #
plane-surface $-1 -1 -1 $-1 52.494687065497082 0 10 0.86779335542607183 0 0.49692523811772676 -0.49692523811772676 0 0.86779335542607183 forward_v I I I I #
coedge $-1 -1 -1 $-1 $32 $33 $34 $35 forward $15 $-1 #
coedge $-1 -1 -1 $-1 $36 $17 $37 $38 forward $11 $-1 #
coedge $-1 -1 -1 $-1 $17 $36 $32 $39 reversed $11 $-1 #
coedge $-1 -1 -1 $-1 $34 $40 $17 $26 reversed $41 $-1 #
edge $42 -1 -1 $-1 $43 0 $44 51.478150704935196 $17 $45 forward @7 unknown T 44.999999999999901 0 54.999999999999837 70 0 100 #
color-adesk-attrib $-1 -1 $-1 $-1 $19 1 1 1 1 1 1 1 1 1 1 1 1 0 1 0 1 1 1 256 #
face $46 -1 -1 $-1 $47 $48 $6 $-1 $49 forward single T 10 -14.175238600470131 10 60 0 100 F #
loop $-1 -1 -1 $-1 $-1 $50 $19 T 10 -14.175238600470131 10 52.494687065497082 0 10 unknown #
plane-surface $-1 -1 -1 $-1 10 0 10 0 0 -1 1 0 0 forward_v I I I I #
coedge $-1 -1 -1 $-1 $51 $52 $53 $54 forward $20 $-1 #
coedge $-1 -1 -1 $-1 $55 $22 $24 $39 forward $15 $-1 #
coedge $-1 -1 -1 $-1 $22 $55 $51 $56 reversed $15 $-1 #
coedge $-1 -1 -1 $-1 $53 $25 $22 $35 reversed $41 $-1 #
edge $57 -1 -1 $-1 $58 0 $43 1.0632668344736336 $22 $59 forward @7 unknown T 40.558764276014145 0 23.72081441810078 44.999999999999901 0 54.999999999999844 #
coedge $-1 -1 -1 $-1 $24 $23 $60 $61 reversed $11 $-1 #
coedge $-1 -1 -1 $-1 $62 $63 $23 $38 reversed $64 $-1 #
edge $65 -1 -1 $-1 $44 0 $66 14.175238600470131 $37 $67 forward @7 unknown T 70 -14.175238600470131 100 70 0 100 #
edge $68 -1 -1 $-1 $43 0 $69 14.175238600470131 $32 $70 forward @7 unknown T 44.999999999999901 -14.175238600470131 54.999999999999844 44.999999999999901 0 54.999999999999844 #
coedge $-1 -1 -1 $-1 $25 $71 $62 $72 reversed $41 $-1 #
loop $-1 -1 -1 $-1 $-1 $40 $73 T 10 0 10 70 0 100.91135838672956 unknown #
color-adesk-attrib $-1 -1 $-1 $-1 $26 1 1 1 1 1 1 1 1 1 1 1 1 0 1 0 1 1 1 256 #
vertex $-1 -1 -1 $-1 $35 $74 #
vertex $-1 -1 -1 $-1 $72 $75 #
straight-curve $-1 -1 -1 $-1 44.999999999999901 0 54.999999999999837 0.48564293117863211 0 0.87415727612153749 F 0 F 51.478150704935196 #
color-adesk-attrib $-1 -1 $-1 $-1 $28 1 1 1 1 1 1 1 1 1 1 1 1 0 1 0 1 1 1 256 #
face $76 -1 -1 $-1 $77 $64 $6 $-1 $78 forward single T 60 -14.175238600470131 100 70 0 100.91135838672956 F #
loop $-1 -1 -1 $-1 $-1 $79 $28 T 10 -14.175238600470131 10 60 0 100 unknown #
plane-surface $-1 -1 -1 $-1 60 0 100 -0.87415727612153782 0 0.48564293117863211 -0.48564293117863211 0 -0.87415727612153782 forward_v I I I I #
coedge $-1 -1 -1 $-1 $80 $81 $82 $83 forward $29 $-1 #
coedge $-1 -1 -1 $-1 $84 $31 $33 $56 forward $20 $-1 #
coedge $-1 -1 -1 $-1 $31 $84 $80 $85 reversed $20 $-1 #
coedge $-1 -1 -1 $-1 $82 $34 $31 $54 reversed $41 $-1 #
edge $86 -1 -1 $-1 $87 0 $58 15.811154040657632 $31 $88 forward @7 unknown T 44.637725578927231 0 10 52.494687065497082 0 23.72081441810078 #
coedge $-1 -1 -1 $-1 $33 $32 $89 $90 reversed $15 $-1 #
edge $91 -1 -1 $-1 $58 0 $92 14.175238600470131 $51 $93 forward @7 tangent T 44.637725578927231 -14.175238600470131 23.72081441810078 44.637725578927231 0 23.720814418100787 #
color-adesk-attrib $-1 -1 $-1 $-1 $35 1 1 1 1 1 1 1 1 1 1 1 1 0 1 0 1 1 1 256 #
vertex $-1 -1 -1 $-1 $54 $94 #
ellipse-curve $-1 -1 -1 $-1 71.41168635159238 0 39.052410067135177 -0 1 0 -26.773960772665149 0 -15.331595649034398 1 F 0 F 1.0632668344736336 #
coedge $-1 -1 -1 $-1 $95 $89 $36 $61 forward $96 $-1 #
edge $97 -1 -1 $-1 $69 0 $66 51.478150704935196 $36 $98 forward @7 unknown T 44.999999999999901 -14.175238600470131 54.999999999999837 70 -14.175238600470131 100 #
coedge $-1 -1 -1 $-1 $99 $37 $40 $72 forward $64 $-1 #
coedge $-1 -1 -1 $-1 $37 $99 $95 $100 reversed $64 $-1 #
loop $-1 -1 -1 $-1 $-1 $62 $47 T 60 -14.175238600470131 100 70 0 100.91135838672956 unknown #
color-adesk-attrib $-1 -1 $-1 $-1 $38 1 1 1 1 1 1 1 1 1 1 1 1 0 1 0 1 1 1 256 #
vertex $-1 -1 -1 $-1 $38 $101 #
straight-curve $-1 -1 -1 $-1 70 0 100 0 -1 0 I I #
color-adesk-attrib $-1 -1 $-1 $-1 $39 1 1 1 1 1 1 1 1 1 1 1 1 0 1 0 1 1 1 256 #
vertex $-1 -1 -1 $-1 $39 $102 #
straight-curve $-1 -1 -1 $-1 44.999999999999901 0 54.999999999999844 0 -1 0 I I #
coedge $-1 -1 -1 $-1 $40 $82 $79 $103 reversed $41 $-1 #
edge $104 -1 -1 $-1 $44 0 $105 0.7211697936014031 $62 $106 forward @7 unknown T 60 0 100 70 0 100.91135838672956 #
face $107 -1 -1 $-1 $-1 $41 $6 $-1 $108 reversed single T 10 0 10 70 0 100.91135838672956 F #
point $-1 -1 -1 $-1 44.999999999999901 0 54.999999999999844 #
point $-1 -1 -1 $-1 70 0 100 #
color-adesk-attrib $-1 -1 $-1 $-1 $47 1 1 1 1 1 1 1 1 1 1 1 1 0 1 0 1 1 1 256 #
face $109 -1 -1 $-1 $73 $96 $6 $-1 $110 forward single T 10 -14.175238600470131 10 70 -14.175238600470131 100.91135838672956 F #
cone-surface $-1 -1 -1 $-1 65 0 86.739889464522037 0 -1 0 5 0 13.260110535477963 1 I I 0 1 14.171468922207524 forward I I I I #
coedge $-1 -1 -1 $-1 $111 $112 $71 $103 forward $48 $-1 #
coedge $-1 -1 -1 $-1 $113 $50 $52 $85 forward $29 $-1 #
coedge $-1 -1 -1 $-1 $50 $113 $111 $114 reversed $29 $-1 #
coedge $-1 -1 -1 $-1 $71 $53 $50 $83 reversed $41 $-1 #
edge $115 -1 -1 $-1 $116 0 $87 42.494687065497082 $50 $117 forward @7 unknown T 10 0 10 52.494687065497082 0 10 #
coedge $-1 -1 -1 $-1 $52 $51 $118 $119 reversed $20 $-1 #
edge $120 -1 -1 $-1 $87 0 $121 14.175238600470131 $80 $122 forward @7 unknown T 52.494687065497082 -14.175238600470131 10 52.494687065497082 0 10 #
color-adesk-attrib $-1 -1 $-1 $-1 $54 1 1 1 1 1 1 1 1 1 1 1 1 0 1 0 1 1 1 256 #
vertex $-1 -1 -1 $-1 $83 $123 #
straight-curve $-1 -1 -1 $-1 52.494687065497082 0 10 -0.49692523811772676 0 0.86779335542607183 F 0 F 15.811154040657632 #
coedge $-1 -1 -1 $-1 $60 $118 $55 $90 forward $96 $-1 #
edge $124 -1 -1 $-1 $92 0 $69 1.0632668344736336 $55 $125 forward @7 unknown T 40.558764276014145 -14.175238600470131 23.72081441810078 44.999999999999901 -14.175238600470131 54.999999999999844 #
color-adesk-attrib $-1 -1 $-1 $-1 $56 1 1 1 1 1 1 1 1 1 1 1 1 0 1 0 1 1 1 256 #
vertex $-1 -1 -1 $-1 $56 $126 #
straight-curve $-1 -1 -1 $-1 44.637725578927231 0 23.72081441810078 0 -1 0 I I #
point $-1 -1 -1 $-1 44.637725578927231 0 23.72081441810078 #
coedge $-1 -1 -1 $-1 $127 $60 $63 $100 forward $96 $-1 #
loop $-1 -1 -1 $-1 $-1 $95 $77 T 10 -14.175238600470131 10 70 -14.175238600470131 100.91135838672956 unknown #
color-adesk-attrib $-1 -1 $-1 $-1 $61 1 1 1 1 1 1 1 1 1 1 1 1 0 1 0 1 1 1 256 #
straight-curve $-1 -1 -1 $-1 44.999999999999901 -14.175238600470131 54.999999999999837 0.48564293117863211 0 0.87415727612153749 I I #
coedge $-1 -1 -1 $-1 $63 $62 $112 $128 forward $64 $-1 #
edge $129 -1 -1 $-1 $66 0 $130 0.7211697936014031 $63 $131 forward @7 unknown T 60 -14.175238600470131 100 70 -14.175238600470131 100.91135838672956 #
point $-1 -1 -1 $-1 70 -14.175238600470131 100 #
point $-1 -1 -1 $-1 44.999999999999901 -14.175238600470131 54.999999999999844 #
edge $132 -1 -1 $-1 $105 0 $116 102.95630140987001 $79 $133 forward @7 unknown T 10 0 10 60 0 100 #
color-adesk-attrib $-1 -1 $-1 $-1 $72 1 1 1 1 1 1 1 1 1 1 1 1 0 1 0 1 1 1 256 #
vertex $-1 -1 -1 $-1 $72 $134 #
ellipse-curve $-1 -1 -1 $-1 65 0 86.739889464522037 0 -1 -0 5 0 13.260110535477963 1 F 0 F 0.7211697936014031 #
color-adesk-attrib $-1 -1 $-1 $-1 $73 1 1 1 1 1 1 1 1 1 1 1 1 0 1 0 1 1 1 256 #
plane-surface $-1 -1 -1 $-1 41.592855354583669 0 49.320834193435005 0 -1 0 0 0 -1 forward_v I I I I #
color-adesk-attrib $-1 -1 $-1 $-1 $77 1 1 1 1 1 1 1 1 1 1 1 1 0 1 0 1 1 1 256 #
plane-surface $-1 -1 -1 $-1 41.592855354583669 -14.175238600470131 49.320834193435005 0 -1 0 0 0 -1 forward_v I I I I #
coedge $-1 -1 -1 $-1 $135 $79 $81 $114 forward $48 $-1 #
coedge $-1 -1 -1 $-1 $79 $135 $99 $128 reversed $48 $-1 #
coedge $-1 -1 -1 $-1 $81 $80 $136 $137 reversed $29 $-1 #
edge $138 -1 -1 $-1 $116 0 $139 14.175238600470131 $111 $140 forward @7 unknown T 10 -14.175238600470131 10 10 0 10 #
color-adesk-attrib $-1 -1 $-1 $-1 $83 1 1 1 1 1 1 1 1 1 1 1 1 0 1 0 1 1 1 256 #
vertex $-1 -1 -1 $-1 $103 $141 #
straight-curve $-1 -1 -1 $-1 10 0 10 1 0 0 F 0 F 42.494687065497082 #
coedge $-1 -1 -1 $-1 $89 $136 $84 $119 forward $96 $-1 #
edge $142 -1 -1 $-1 $121 0 $92 15.811154040657632 $84 $143 forward @7 unknown T 44.637725578927231 -14.175238600470131 10 52.494687065497082 -14.175238600470131 23.720814418100787 #
color-adesk-attrib $-1 -1 $-1 $-1 $85 1 1 1 1 1 1 1 1 1 1 1 1 0 1 0 1 1 1 256 #
vertex $-1 -1 -1 $-1 $85 $144 #
straight-curve $-1 -1 -1 $-1 52.494687065497082 0 10 0 -1 0 I I #
point $-1 -1 -1 $-1 52.494687065497082 0 10 #
color-adesk-attrib $-1 -1 $-1 $-1 $90 1 1 1 1 1 1 1 1 1 1 1 1 0 1 0 1 1 1 256 #
ellipse-curve $-1 -1 -1 $-1 71.41168635159238 -14.175238600470131 39.052410067135177 0 1 0 -26.773960772665149 0 -15.331595649034398 1 I I #
point $-1 -1 -1 $-1 44.637725578927231 -14.175238600470131 23.720814418100787 #
coedge $-1 -1 -1 $-1 $136 $95 $135 $145 forward $96 $-1 #
edge $146 -1 -1 $-1 $105 0 $130 14.175238600470131 $99 $147 forward @7 unknown T 60 -14.175238600470131 100 60 0 100 #
color-adesk-attrib $-1 -1 $-1 $-1 $100 1 1 1 1 1 1 1 1 1 1 1 1 0 1 0 1 1 1 256 #
vertex $-1 -1 -1 $-1 $128 $148 #
ellipse-curve $-1 -1 -1 $-1 65 -14.175238600470131 86.739889464522037 0 -1 0 5 0 13.260110535477963 1 I I #
color-adesk-attrib $-1 -1 $-1 $-1 $103 1 1 1 1 1 1 1 1 1 1 1 1 0 1 0 1 1 1 256 #
straight-curve $-1 -1 -1 $-1 60 0 100 -0.485642931178632 0 -0.8741572761215376 F 0 F 102.95630140987001 #
point $-1 -1 -1 $-1 60 0 100 #
coedge $-1 -1 -1 $-1 $112 $111 $127 $145 reversed $48 $-1 #
coedge $-1 -1 -1 $-1 $118 $127 $113 $137 forward $96 $-1 #
edge $149 -1 -1 $-1 $139 0 $121 42.494687065497082 $113 $150 forward @7 unknown T 10 -14.175238600470131 10 52.494687065497082 -14.175238600470131 10 #
color-adesk-attrib $-1 -1 $-1 $-1 $114 1 1 1 1 1 1 1 1 1 1 1 1 0 1 0 1 1 1 256 #
vertex $-1 -1 -1 $-1 $114 $151 #
straight-curve $-1 -1 -1 $-1 10 0 10 0 -1 0 I I #
point $-1 -1 -1 $-1 10 0 10 #
color-adesk-attrib $-1 -1 $-1 $-1 $119 1 1 1 1 1 1 1 1 1 1 1 1 0 1 0 1 1 1 256 #
straight-curve $-1 -1 -1 $-1 52.494687065497082 -14.175238600470131 10 -0.49692523811772676 0 0.86779335542607183 I I #
point $-1 -1 -1 $-1 52.494687065497082 -14.175238600470131 10 #
edge $152 -1 -1 $-1 $130 0 $139 102.95630140987001 $135 $153 forward @7 unknown T 10 -14.175238600470131 10 60 -14.175238600470131 100 #
color-adesk-attrib $-1 -1 $-1 $-1 $128 1 1 1 1 1 1 1 1 1 1 1 1 0 1 0 1 1 1 256 #
straight-curve $-1 -1 -1 $-1 60 0 100 0 -1 0 I I #
point $-1 -1 -1 $-1 60 -14.175238600470131 100 #
color-adesk-attrib $-1 -1 $-1 $-1 $137 1 1 1 1 1 1 1 1 1 1 1 1 0 1 0 1 1 1 256 #
straight-curve $-1 -1 -1 $-1 10 -14.175238600470131 10 1 0 0 I I #
point $-1 -1 -1 $-1 10 -14.175238600470131 10 #
color-adesk-attrib $-1 -1 $-1 $-1 $145 1 1 1 1 1 1 1 1 1 1 1 1 0 1 0 1 1 1 256 #
straight-curve $-1 -1 -1 $-1 60 -14.175238600470131 100 -0.485642931178632 0 -0.8741572761215376 I I #
End-of-ACIS-data 